<svg viewBox="0 0 100 100" xmlns="http://www.w3.org/2000/svg">
  <circle cx="50" cy="50" r="48" fill="#ffffff" stroke="#e0e0e0" stroke-width="2"/>
  <path d="M50,22 C34.5,22 22,34.5 22,50 C22,65.5 34.5,78 50,78 C57.5,78 64.5,75.5 69.5,71 L59,62 C56.5,63.5 53.5,64.5 50,64.5 C42.5,64.5 36.5,59 34.5,52 L23.5,60.5 C29.5,72.5 41.5,80.5 55.5,80.5 C70,80.5 81,70.5 81,55 C81,52 80.5,49.5 79.5,47 L50,47 L50,60 L67,60 C65.5,66 60.5,70 54.5,71.5 L65.5,80.5 C74.5,72 80,60 80,50 C80,48 79.5,46 79,44 L50,44 L50,22 Z" fill="#4285F4"/>
</svg>
