<svg viewBox="0 0 100 100" xmlns="http://www.w3.org/2000/svg">
  <circle cx="50" cy="50" r="48" fill="#4caf50"/>
  <path d="M48.8,26.5c-12.2,0-22.1,9.9-22.1,22.1c0,4.2,1.2,8.1,3.3,11.5l-3.1,11.5l11.7-3.1c3.2,1.8,6.8,2.8,10.7,2.8 c12.2,0,22.1-9.9,22.1-22.1C71.3,36.4,61.4,26.5,48.8,26.5z M59.2,56.7c-0.4,1.2-2.4,2.2-3.4,2.4c-0.9,0.1-2.1,0.2-5.7-1.3 c-4.4-1.8-7.2-6.3-7.4-6.6c-0.2-0.3-1.8-2.4-1.8-4.5c0-2.1,1.1-3.2,1.5-3.7c0.4-0.4,0.9-0.5,1.2-0.5c0.3,0,0.6,0,0.8,0 c0.3,0,0.6-0.1,1,0.7c0.4,1,1.2,2.9,1.3,3.1c0.1,0.2,0.2,0.5,0,0.8C46.5,47.4,46.3,47.7,46,48c-0.3,0.3-0.6,0.6-0.3,1.1 c0.3,0.5,1.1,1.9,2.4,3.1c1.6,1.4,3,1.9,3.5,2.1c0.5,0.2,0.8,0.2,1.1-0.1c0.3-0.3,1.3-1.5,1.6-2c0.3-0.5,0.7-0.4,1.2-0.2 c0.5,0.2,3.1,1.5,3.6,1.7c0.5,0.2,0.9,0.4,1,0.6C60,54.7,60,55.5,59.2,56.7z" fill="#ffffff"/>
</svg>
